# xmcd
#
# Track frame offsets: 
#        150
#        16157
#        42092
#        60447
#        79937
#        101037
#        124372
#        142820
#        164462
#        187465
#        208605
#        231122
#
# Disc length: 3315 seconds
#
# Revision: 2
# Processed by: cddbd v1.5.2PL0 Copyright (c) Steve Scherf et al.
# Submitted via: ExactAudioCopy v0.95a5
#
DISCID=a40cf10c
DTITLE=ALL-4-ONE - k-ALL-4-ONE
DYEAR=1994
DGENRE=R&B
TTITLE0=So Much In Love
TTITLE1=Oh Girl
TTITLE2=A Better Man
TTITLE3=I Swear
TTITLE4=Down To The Last Drop
TTITLE5=Without You
TTITLE6=(She's Got) Skillz
TTITLE7=Breathless
TTITLE8=Something About You
TTITLE9=The Bomb
TTITLE10=Here If You're Ready
TTITLE11=So Much In Love (Groove Remix)
EXTD=
EXTT0=
EXTT1=
EXTT2=
EXTT3=
EXTT4=
EXTT5=
EXTT6=
EXTT7=
EXTT8=
EXTT9=
EXTT10=
EXTT11=
PLAYORDER=
